HIERARCHY
ROOT Hips
{
	OFFSET 0.000000 97.167313 0.000000
	CHANNELS 6 Xposition Yposition Zposition Xrotation Yrotation Zrotation
	JOINT Spine
	{
		OFFSET 0.000000 13.784798 0.064400
		CHANNELS 3 Xrotation Yrotation Zrotation
		JOINT Spine1
		{
			OFFSET 0.000000 12.037903 0.404700
			CHANNELS 3 Xrotation Yrotation Zrotation
			JOINT Spine2
			{
				OFFSET 0.000000 17.795601 0.420200
				CHANNELS 3 Xrotation Yrotation Zrotation
				JOINT Neck
				{
					OFFSET 0.000000 39.131302 11.954600
					CHANNELS 3 Xrotation Yrotation Zrotation
					JOINT Head
					{
						OFFSET 0.000000 14.456192 15.627699
						CHANNELS 3 Xrotation Yrotation Zrotation
						JOINT HeadTop_End
						{
							OFFSET 0.000000 15.703506 7.603401
							CHANNELS 3 Xrotation Yrotation Zrotation
							End Site
							{
								OFFSET 0.000000 17.447403 0.000000
							}
						}
					}
				}
				JOINT LeftShoulder
				{
					OFFSET 17.399500 24.608795 1.168800
					CHANNELS 3 Xrotation Yrotation Zrotation
					JOINT LeftArm
					{
						OFFSET 18.980635 5.765305 1.818600
						CHANNELS 3 Xrotation Yrotation Zrotation
						JOINT LeftForeArm
						{
							OFFSET 49.290169 0.000000 0.000000
							CHANNELS 3 Xrotation Yrotation Zrotation
							JOINT LeftHand
							{
								OFFSET 31.562012 0.000000 0.000000
								CHANNELS 3 Xrotation Yrotation Zrotation
								JOINT LeftHandThumb1
								{
									OFFSET 6.133995 -4.388519 7.076070
									CHANNELS 3 Xrotation Yrotation Zrotation
									JOINT LeftHandThumb2
									{
										OFFSET 6.037666 -3.485840 3.485847
										CHANNELS 3 Xrotation Yrotation Zrotation
										JOINT LeftHandThumb3
										{
											OFFSET 6.496506 -3.750763 3.750761
											CHANNELS 3 Xrotation Yrotation Zrotation
											JOINT LeftHandThumb4
											{
												OFFSET 5.616882 -3.242905 3.242910
												CHANNELS 3 Xrotation Yrotation Zrotation
												End Site
												{
													OFFSET -1.254608 7.132141 0.375429
												}
											}
										}
									}
								}
								JOINT LeftHandPinky1
								{
									OFFSET 18.920792 -0.453171 -11.426712
									CHANNELS 3 Xrotation Yrotation Zrotation
									JOINT LeftHandPinky2
									{
										OFFSET 4.919586 0.000000 0.000000
										CHANNELS 3 Xrotation Yrotation Zrotation
										JOINT LeftHandPinky3
										{
											OFFSET 5.233047 0.000000 0.000000
											CHANNELS 3 Xrotation Yrotation Zrotation
											JOINT LeftHandPinky4
											{
												OFFSET 5.571716 0.000000 0.000000
												CHANNELS 3 Xrotation Yrotation Zrotation
												End Site
												{
													OFFSET -3.459808 4.342407 -0.466164
												}
											}
										}
									}
								}
								JOINT LeftHandRing1
								{
									OFFSET 22.726120 -0.094986 -6.500475
									CHANNELS 3 Xrotation Yrotation Zrotation
									JOINT LeftHandRing2
									{
										OFFSET 6.408615 0.000000 0.000000
										CHANNELS 3 Xrotation Yrotation Zrotation
										JOINT LeftHandRing3
										{
											OFFSET 6.150223 0.000000 0.000000
											CHANNELS 3 Xrotation Yrotation Zrotation
											JOINT LeftHandRing4
											{
												OFFSET 6.145386 0.000000 0.000000
												CHANNELS 3 Xrotation Yrotation Zrotation
												End Site
												{
													OFFSET -3.671402 4.923981 -0.202372
												}
											}
										}
									}
								}
								JOINT LeftHandMiddle1
								{
									OFFSET 23.373947 0.000000 0.000001
									CHANNELS 3 Xrotation Yrotation Zrotation
									JOINT LeftHandMiddle2
									{
										OFFSET 6.996567 0.000000 0.000000
										CHANNELS 3 Xrotation Yrotation Zrotation
										JOINT LeftHandMiddle3
										{
											OFFSET 7.015945 0.000000 0.000000
											CHANNELS 3 Xrotation Yrotation Zrotation
											JOINT LeftHandMiddle4
											{
												OFFSET 7.721573 0.000000 0.000000
												CHANNELS 3 Xrotation Yrotation Zrotation
												End Site
												{
													OFFSET -4.651108 6.158463 0.251582
												}
											}
										}
									}
								}
								JOINT LeftHandIndex1
								{
									OFFSET 21.310577 -0.490082 6.209344
									CHANNELS 3 Xrotation Yrotation Zrotation
									JOINT LeftHandIndex2
									{
										OFFSET 7.536453 0.000000 0.000000
										CHANNELS 3 Xrotation Yrotation Zrotation
										JOINT LeftHandIndex3
										{
											OFFSET 7.512344 0.000000 0.000000
											CHANNELS 3 Xrotation Yrotation Zrotation
											JOINT LeftHandIndex4
											{
												OFFSET 10.212402 0.000000 0.000001
												CHANNELS 3 Xrotation Yrotation Zrotation
												End Site
												{
													OFFSET -5.180801 8.690506 1.388433
												}
											}
										}
									}
								}
							}
						}
					}
				}
				JOINT RightShoulder
				{
					OFFSET -17.399500 24.608795 1.168800
					CHANNELS 3 Xrotation Yrotation Zrotation
					JOINT RightArm
					{
						OFFSET -18.980635 5.765305 1.818600
						CHANNELS 3 Xrotation Yrotation Zrotation
						JOINT RightForeArm
						{
							OFFSET -49.290169 0.000000 0.000000
							CHANNELS 3 Xrotation Yrotation Zrotation
							JOINT RightHand
							{
								OFFSET -31.562012 0.000000 0.000000
								CHANNELS 3 Xrotation Yrotation Zrotation
								JOINT RightHandThumb1
								{
									OFFSET -6.133995 -4.388519 7.076070
									CHANNELS 3 Xrotation Yrotation Zrotation
									JOINT RightHandThumb2
									{
										OFFSET -6.037666 -3.485840 3.485847
										CHANNELS 3 Xrotation Yrotation Zrotation
										JOINT RightHandThumb3
										{
											OFFSET -6.496506 -3.750763 3.750761
											CHANNELS 3 Xrotation Yrotation Zrotation
											JOINT RightHandThumb4
											{
												OFFSET -5.616882 -3.242905 3.242910
												CHANNELS 3 Xrotation Yrotation Zrotation
												End Site
												{
													OFFSET 1.254608 7.132141 0.375429
												}
											}
										}
									}
								}
								JOINT RightHandIndex1
								{
									OFFSET -21.310577 -0.490082 6.209344
									CHANNELS 3 Xrotation Yrotation Zrotation
									JOINT RightHandIndex2
									{
										OFFSET -7.536453 0.000000 0.000000
										CHANNELS 3 Xrotation Yrotation Zrotation
										JOINT RightHandIndex3
										{
											OFFSET -7.512344 0.000000 0.000000
											CHANNELS 3 Xrotation Yrotation Zrotation
											JOINT RightHandIndex4
											{
												OFFSET -10.212402 0.000000 0.000001
												CHANNELS 3 Xrotation Yrotation Zrotation
												End Site
												{
													OFFSET 5.180801 8.690506 1.388433
												}
											}
										}
									}
								}
								JOINT RightHandMiddle1
								{
									OFFSET -23.373947 0.000000 0.000001
									CHANNELS 3 Xrotation Yrotation Zrotation
									JOINT RightHandMiddle2
									{
										OFFSET -6.996567 0.000000 0.000000
										CHANNELS 3 Xrotation Yrotation Zrotation
										JOINT RightHandMiddle3
										{
											OFFSET -7.015945 0.000000 0.000000
											CHANNELS 3 Xrotation Yrotation Zrotation
											JOINT RightHandMiddle4
											{
												OFFSET -7.721573 0.000000 0.000000
												CHANNELS 3 Xrotation Yrotation Zrotation
												End Site
												{
													OFFSET 4.651108 6.158463 0.251582
												}
											}
										}
									}
								}
								JOINT RightHandRing1
								{
									OFFSET -22.726120 -0.094986 -6.500475
									CHANNELS 3 Xrotation Yrotation Zrotation
									JOINT RightHandRing2
									{
										OFFSET -6.408615 0.000000 0.000000
										CHANNELS 3 Xrotation Yrotation Zrotation
										JOINT RightHandRing3
										{
											OFFSET -6.150223 0.000000 0.000000
											CHANNELS 3 Xrotation Yrotation Zrotation
											JOINT RightHandRing4
											{
												OFFSET -6.145386 0.000000 0.000000
												CHANNELS 3 Xrotation Yrotation Zrotation
												End Site
												{
													OFFSET 3.671402 4.923981 -0.202372
												}
											}
										}
									}
								}
								JOINT RightHandPinky1
								{
									OFFSET -18.920792 -0.453171 -11.426712
									CHANNELS 3 Xrotation Yrotation Zrotation
									JOINT RightHandPinky2
									{
										OFFSET -4.919586 0.000000 0.000000
										CHANNELS 3 Xrotation Yrotation Zrotation
										JOINT RightHandPinky3
										{
											OFFSET -5.233047 0.000000 0.000000
											CHANNELS 3 Xrotation Yrotation Zrotation
											JOINT RightHandPinky4
											{
												OFFSET -5.571716 0.000000 0.000000
												CHANNELS 3 Xrotation Yrotation Zrotation
												End Site
												{
													OFFSET 3.459808 4.342407 -0.466164
												}
											}
										}
									}
								}
							}
						}
					}
				}
			}
		}
	}
	JOINT LeftUpLeg
	{
		OFFSET 19.899099 -7.885101 -3.429500
		CHANNELS 3 Xrotation Yrotation Zrotation
		JOINT LeftLeg
		{
			OFFSET 1.745560 -36.997807 10.304700
			CHANNELS 3 Xrotation Yrotation Zrotation
			JOINT LeftFoot
			{
				OFFSET -1.745558 -29.803308 -13.615400
				CHANNELS 3 Xrotation Yrotation Zrotation
				JOINT LeftToeBase
				{
					OFFSET 1.181900 -18.539904 15.226099
					CHANNELS 3 Xrotation Yrotation Zrotation
					JOINT LeftToe_End
					{
						OFFSET -0.863701 1.402801 16.534700
						CHANNELS 3 Xrotation Yrotation Zrotation
						End Site
						{
							OFFSET 0.000000 16.616566 0.000000
						}
					}
				}
			}
		}
	}
	JOINT RightUpLeg
	{
		OFFSET -19.899099 -7.885101 -3.429500
		CHANNELS 3 Xrotation Yrotation Zrotation
		JOINT RightLeg
		{
			OFFSET -1.745560 -36.997807 10.304700
			CHANNELS 3 Xrotation Yrotation Zrotation
			JOINT RightFoot
			{
				OFFSET 1.745558 -29.803308 -13.615400
				CHANNELS 3 Xrotation Yrotation Zrotation
				JOINT RightToeBase
				{
					OFFSET -1.181900 -18.539904 15.226099
					CHANNELS 3 Xrotation Yrotation Zrotation
					JOINT RightToe_End
					{
						OFFSET 0.863701 1.402801 16.534700
						CHANNELS 3 Xrotation Yrotation Zrotation
						End Site
						{
							OFFSET 0.000000 16.616566 0.000000
						}
					}
				}
			}
		}
	}
}
MOTION
Frames: 4
Frame Time: 0.033333
0.024442 80.913033 4.660486 7.886445 -33.031696 2.729341 15.749807 -2.651489 1.713698 9.718085 -5.257683 1.123249 -2.166291 -5.398494 0.203872 -13.477252 28.364743 -2.411657 -2.228332 16.128033 1.414755 0.000001 0.000000 -0.000000 -0.343838 -2.037123 -1.423381 -9.964788 13.225004 -64.698748 -23.300202 -31.980872 -15.521205 2.937342 -10.636579 12.994178 20.895944 1.423304 14.873598 2.134671 15.425899 -8.920762 5.706563 8.483043 -0.820787 0.000005 -0.000001 0.000001 1.228558 5.197144 -47.879250 -1.506662 -1.439060 -42.325299 -2.825543 -0.624062 -52.226171 -0.000003 0.000002 -0.000011 2.390403 6.717796 -39.592295 -1.432483 -1.732448 -44.480955 -1.236014 -1.553908 -39.611382 -0.000001 -0.000001 0.000003 2.209067 4.648917 -30.266303 -0.082579 -2.162744 -38.577158 0.221462 -2.150434 -34.113837 -0.000000 -0.000005 0.000001 0.890244 3.277694 -18.135278 -0.060683 -0.991122 -22.155327 -0.180320 -1.241262 -25.122474 0.000002 0.000001 -0.000001 1.629730 2.987138 3.289261 -23.116032 20.124082 74.083579 -21.572376 58.725502 18.714141 12.490352 12.759785 -9.121668 55.149601 18.649545 -29.698270 -0.442488 -14.180572 7.313169 21.666916 -29.244493 9.142387 -0.000000 0.000000 0.000001 5.673417 7.584998 36.844113 1.050474 3.824438 68.900162 0.499584 3.026098 62.196515 0.000000 -0.000005 0.000001 -0.125667 1.886038 45.000756 -1.169021 3.204719 68.417643 -0.936426 1.813662 41.107565 0.000003 0.000002 -0.000004 -5.311940 1.216638 58.508794 -0.745183 1.667611 48.011206 -0.816558 1.840670 53.666637 0.000001 -0.000000 -0.000002 -7.756791 -9.376449 47.263830 -0.526050 1.541541 45.600477 -0.508180 0.803379 24.986635 -0.000000 -0.000000 0.000002 -42.153069 3.016509 14.606650 73.385888 -18.650989 -5.753537 3.733501 -1.692871 -14.966150 -10.763223 -5.736516 16.707729 0.000000 -0.000003 0.000003 -38.186450 -2.444312 0.699558 48.877804 11.556582 -0.165350 -21.980623 -1.580045 -0.028665 11.061327 2.339345 -4.012387 0.000000 -0.000003 0.000000 
0.010061 81.914810 7.661125 7.922013 -33.661092 3.225877 15.735050 -2.631219 1.554287 9.706179 -5.237939 0.949092 -2.176709 -5.338870 0.038281 -13.308027 28.483386 -2.455039 -2.344015 16.271030 0.934185 0.000000 -0.000000 -0.000000 -0.336901 -2.036988 -1.462400 -9.276772 13.909734 -64.787944 -23.308891 -31.354759 -15.589295 2.863322 -10.283694 12.835350 20.829879 1.490937 15.020896 2.182235 15.486662 -8.931647 5.706562 8.483039 -0.820793 0.000000 -0.000002 0.000000 1.223458 5.192569 -48.069567 -1.511528 -1.444367 -42.516141 -2.830257 -0.627712 -52.416948 -0.000001 0.000001 -0.000004 2.385536 6.712034 -39.782563 -1.437689 -1.737772 -44.671852 -1.240892 -1.559759 -39.802214 -0.000002 -0.000003 0.000005 2.263884 4.732477 -30.466933 -0.087200 -2.168523 -38.767932 0.217279 -2.156553 -34.304625 -0.000000 -0.000001 0.000001 0.931728 3.379242 -18.333343 -0.063543 -0.998113 -22.346130 -0.183528 -1.248008 -25.313255 0.000002 0.000001 -0.000001 1.642570 2.883508 3.449883 -23.194356 20.162290 73.699312 -22.322805 58.715448 19.684713 12.821945 12.397610 -8.733215 55.149594 18.649550 -29.698270 -0.442488 -14.180568 7.313171 21.666921 -29.244497 9.142385 0.000000 0.000000 -0.000000 5.673409 7.585004 36.844113 1.050475 3.824440 68.900162 0.499591 3.026101 62.196515 -0.000000 -0.000003 -0.000001 -0.125670 1.886036 45.000753 -1.169020 3.204714 68.417636 -0.936426 1.813663 41.107565 -0.000002 0.000000 -0.000001 -5.311944 1.216640 58.508794 -0.745181 1.667612 48.011203 -0.816554 1.840670 53.666634 0.000000 0.000001 -0.000001 -7.756797 -9.376442 47.263823 -0.526052 1.541545 45.600471 -0.508179 0.803377 24.986628 -0.000000 -0.000003 0.000004 -44.872256 1.893908 16.953892 68.737910 -19.220856 -6.336896 3.562856 -1.031688 -17.498292 -8.343224 -2.871234 15.263099 0.000002 -0.000001 0.000002 -35.178770 -2.755067 -1.440446 47.225041 13.780536 -0.231995 -22.996298 -1.814642 1.024133 10.536908 2.553923 -4.184334 -0.000001 -0.000000 0.000000 
-0.116260 83.294647 10.869377 7.979315 -34.569158 3.823297 15.735007 -2.673999 1.307719 9.704776 -5.233089 0.748742 -2.177170 -5.288757 -0.156384 -13.012548 28.698317 -2.563253 -2.433578 16.463676 0.464759 -0.000002 -0.000000 0.000000 -0.333601 -2.040758 -1.487023 -7.804169 14.996802 -65.252793 -22.715338 -30.890080 -15.310615 2.672161 -9.327632 12.401697 20.651779 1.668806 15.406818 2.307418 15.646293 -8.960447 5.706564 8.483043 -0.820785 -0.000001 -0.000001 0.000004 1.209918 5.180565 -48.569902 -1.524303 -1.458194 -43.017751 -2.842682 -0.637175 -52.918424 0.000000 -0.000001 -0.000006 2.372799 6.696945 -40.282625 -1.451590 -1.751689 -45.173707 -1.253770 -1.575034 -40.303925 -0.000001 -0.000002 0.000001 2.410898 4.950376 -30.994961 -0.103197 -2.193126 -39.269452 0.206246 -2.175079 -34.806241 -0.000003 -0.000006 0.000004 1.038474 3.646841 -18.854198 -0.071125 -1.016337 -22.847652 -0.192039 -1.265811 -25.814833 0.000003 0.000003 0.000001 1.650249 2.821869 3.546834 -23.285517 20.350731 73.395478 -22.809354 58.699575 20.548964 13.073637 12.124112 -8.382053 55.149597 18.649541 -29.698270 -0.442488 -14.180572 7.313170 21.666916 -29.244497 9.142386 -0.000000 -0.000001 0.000001 5.673411 7.585002 36.844113 1.050474 3.824436 68.900168 0.499586 3.026099 62.196515 0.000003 -0.000005 -0.000002 -0.125668 1.886037 45.000756 -1.169017 3.204721 68.417636 -0.936425 1.813662 41.107565 -0.000000 0.000001 -0.000001 -5.311941 1.216644 58.508794 -0.745182 1.667611 48.011206 -0.816559 1.840669 53.666637 0.000001 0.000001 0.000000 -7.756787 -9.376440 47.263826 -0.526053 1.541546 45.600471 -0.508181 0.803378 24.986635 0.000000 0.000002 0.000001 -45.425604 1.116149 18.560667 60.183064 -18.734043 -6.622054 3.867196 -0.680912 -18.812848 -5.389691 -0.966907 16.862754 0.000002 0.000002 -0.000000 -31.653894 -3.227032 -3.560499 44.344139 16.133033 -0.357145 -23.375955 -2.032372 2.104428 10.004075 2.493773 -3.763011 -0.000000 -0.000001 0.000000 
-0.254995 84.825600 13.870493 8.168141 -35.703588 4.489723 15.692824 -2.801094 0.979019 9.644081 -5.258380 0.565423 -2.237998 -5.272993 -0.340817 -12.628134 29.003186 -2.679558 -2.424854 16.714397 0.068029 -0.000000 0.000000 -0.000000 -0.328220 -2.029450 -1.505142 -5.770747 16.341668 -65.913682 -22.430922 -30.333806 -15.276843 2.415416 -7.913813 11.755599 20.398544 1.917839 15.955037 2.485122 15.872183 -9.001878 5.706561 8.483039 -0.820790 0.000001 -0.000003 -0.000001 1.181698 5.163826 -49.277400 -1.547187 -1.481895 -43.728070 -2.871425 -0.650413 -53.628449 -0.000001 0.000000 -0.000002 2.354478 6.675765 -40.990868 -1.471407 -1.771158 -45.884268 -1.272193 -1.596519 -41.014330 -0.000003 -0.000001 0.000003 2.626367 5.254337 -31.744226 -0.130609 -2.227821 -39.979713 0.185062 -2.204711 -35.516816 -0.000000 -0.000001 0.000006 1.198208 4.022591 -19.593093 -0.082219 -1.043858 -23.557871 -0.206111 -1.296341 -26.525045 0.000002 0.000000 -0.000004 1.648583 2.844367 3.493012 -23.322683 20.598474 73.270738 -22.988270 58.682226 21.265186 13.208290 11.960629 -8.015421 55.149597 18.649545 -29.698270 -0.442489 -14.180575 7.313166 21.666912 -29.244490 9.142386 0.000000 -0.000001 -0.000000 5.673412 7.585002 36.844120 1.050476 3.824436 68.900162 0.499591 3.026100 62.196515 -0.000001 -0.000003 -0.000001 -0.125671 1.886038 45.000759 -1.169020 3.204719 68.417636 -0.936424 1.813660 41.107569 -0.000001 0.000002 -0.000004 -5.311941 1.216639 58.508801 -0.745183 1.667610 48.011203 -0.816555 1.840669 53.666630 -0.000000 -0.000000 -0.000003 -7.756791 -9.376445 47.263830 -0.526053 1.541544 45.600471 -0.508185 0.803380 24.986630 -0.000001 0.000000 0.000001 -44.328686 0.410251 19.842917 50.508562 -16.366146 -6.246229 3.194392 0.040611 -17.537539 -0.236991 1.034650 11.634082 -0.000000 -0.000000 0.000000 -28.243763 -3.583003 -5.145503 40.647115 18.081978 -0.788356 -22.964250 -2.282550 3.184984 9.430664 2.154748 -2.962101 0.000000 0.000000 0.000001 
